<svg version="1.2" xmlns="http://www.w3.org/2000/svg" viewBox="949.152389254423 258.43191772408704 280.1952214911569 160.04625032570698" width="512" height="512">
	<defs>
		<clipPath clipPathUnits="userSpaceOnUse" id="cp1">
			<path d="m1082.6 293.89h146.75v124.47h-146.75z"/>
		</clipPath>
		<clipPath clipPathUnits="userSpaceOnUse" id="cp2">
			<path d="m949.15 258.43h159.04v159.04h-159.04z"/>
		</clipPath>
	</defs>
	<style>
		.s0 { fill: #1a1a1a } 
		.s1 { fill: #187cb1 } 
		.s2 { fill: #003153 } 
		.s3 { fill: #bcbcbc } 
	</style>
	<g id="Layer 1">
		<g id="&lt;Group&gt;">
			<g id="&lt;Clip Group&gt;" clip-path="url(#cp1)">
				<path id="&lt;Path&gt;" fill-rule="evenodd" class="s0" d="m1184.55 405.04h-34.99q-14.46-0.01-26.74-4.33-12.3-4.32-21.19-11.88-8.87-7.52-13.94-17.94-5.08-10.36-5.08-22.51 0-12.12 5.08-22.16 5.07-10.05 13.94-17.3 8.89-7.22 21.19-11.13c8.19-2.61 17.12-3.9 26.74-3.9h79.6l-22.27 28.91h-57.33q-6.97 0.01-12.97 1.99-5.98 1.99-10.39 5.66-4.41 3.64-6.9 8.56-2.5 4.92-2.51 10.9 0.01 5.98 2.41 10.9c1.59 3.28 3.89 6.05 6.8 8.39q4.41 3.49 10.39 5.41c3.99 1.29 8.36 1.9 13.13 1.9h34.96v28.53z"/>
				<path id="&lt;Path&gt;" fill-rule="evenodd" class="s1" d="m1142.55 363.75h54.69v54.73l28.6-22v-32.73-28.57h-28.6-32.69z"/>
			</g>
			<g id="&lt;Clip Group&gt;" clip-path="url(#cp2)">
				<path id="&lt;Compound Path&gt;" class="s2" d="m995.54 418.47l74-74.01c1.77-1.77 4.8-0.52 4.8 1.99v72.02h34.49v-155.29c0-2.5-3.03-3.75-4.8-1.98l-72.54 72.54q-0.06 0.05-0.11 0.1v0.01c-1.1 0.99-2.8 0.95-3.86-0.11l-11.91-11.91-60.64-60.63c-1.77-1.77-4.79-0.52-4.79 1.98v155.29zm-10.88-72.02c0-2.51 3.03-3.76 4.8-1.99l1.76 1.76 11.91 11.91c1.05 1.05 1.09 2.74 0.12 3.84q-0.06 0.07-0.12 0.13l-13.67 13.67c-1.77 1.77-4.8 0.52-4.8-1.99z"/>
				<path id="&lt;Compound Path&gt;" class="s3" d="m1031.12 334.05q0.13-0.09 0.26-0.2-0.13 0.11-0.26 0.2zm-1.63 0.51c-0.71 0-1.43-0.27-1.97-0.82 0.54 0.55 1.26 0.82 1.97 0.82zm0.01 0q0.01 0 0.02 0-0.01 0-0.02 0zm-25.77 24.47q-0.2-0.5-0.6-0.9l-11.91-11.91 11.91 11.91q0.4 0.4 0.6 0.9z"/>
				<path id="&lt;Path&gt;" class="s1" d="m1003.25 361.97c0.73-0.82 0.89-1.97 0.48-2.94q-0.2-0.5-0.6-0.9l-11.91-11.91 24.39-24.39 11.91 11.91c0.54 0.55 1.26 0.82 1.97 0.82q0.01 0 0.01 0 0.01 0 0.02 0c0.56 0 1.12-0.17 1.6-0.51q0.13-0.09 0.26-0.2z"/>
			</g>
		</g>
	</g>
</svg>