<svg xmlns="http://www.w3.org/2000/svg" version="1.1" xmlns:xlink="http://www.w3.org/1999/xlink" width="1000" height="1000"><style>
    #light-icon {
      display: inline;
    }
    #dark-icon {
      display: none;
    }

    @media (prefers-color-scheme: dark) {
      #light-icon {
        display: none;
      }
      #dark-icon {
        display: inline;
      }
    }
  </style><g id="light-icon"><svg xmlns="http://www.w3.org/2000/svg" version="1.1" xmlns:xlink="http://www.w3.org/1999/xlink" width="1000" height="1000"><g><g transform="matrix(1.953125,0,0,1.953125,0,0)"><svg xmlns="http://www.w3.org/2000/svg" version="1.2" viewBox="949.152389254423 258.43191772408704 280.1952214911569 160.04625032570698" width="512" height="512"><defs>
		<clipPath clipPathUnits="userSpaceOnUse" id="cp1">
			<path d="m1082.6 293.89h146.75v124.47h-146.75z"></path>
		</clipPath>
		<clipPath clipPathUnits="userSpaceOnUse" id="cp2">
			<path d="m949.15 258.43h159.04v159.04h-159.04z"></path>
		</clipPath>
	</defs><style>
		.s0 { fill: #1a1a1a } 
		.s1 { fill: #187cb1 } 
		.s2 { fill: #003153 } 
		.s3 { fill: #bcbcbc } 
	</style><g id="Layer 1">
		<g id="&lt;Group&gt;">
			<g id="&lt;Clip Group&gt;" clip-path="url(#cp1)">
				<path id="&lt;Path&gt;" fill-rule="evenodd" class="s0" d="m1184.55 405.04h-34.99q-14.46-0.01-26.74-4.33-12.3-4.32-21.19-11.88-8.87-7.52-13.94-17.94-5.08-10.36-5.08-22.51 0-12.12 5.08-22.16 5.07-10.05 13.94-17.3 8.89-7.22 21.19-11.13c8.19-2.61 17.12-3.9 26.74-3.9h79.6l-22.27 28.91h-57.33q-6.97 0.01-12.97 1.99-5.98 1.99-10.39 5.66-4.41 3.64-6.9 8.56-2.5 4.92-2.51 10.9 0.01 5.98 2.41 10.9c1.59 3.28 3.89 6.05 6.8 8.39q4.41 3.49 10.39 5.41c3.99 1.29 8.36 1.9 13.13 1.9h34.96v28.53z"></path>
				<path id="&lt;Path&gt;" fill-rule="evenodd" class="s1" d="m1142.55 363.75h54.69v54.73l28.6-22v-32.73-28.57h-28.6-32.69z"></path>
			</g>
			<g id="&lt;Clip Group&gt;" clip-path="url(#cp2)">
				<path id="&lt;Compound Path&gt;" class="s2" d="m995.54 418.47l74-74.01c1.77-1.77 4.8-0.52 4.8 1.99v72.02h34.49v-155.29c0-2.5-3.03-3.75-4.8-1.98l-72.54 72.54q-0.06 0.05-0.11 0.1v0.01c-1.1 0.99-2.8 0.95-3.86-0.11l-11.91-11.91-60.64-60.63c-1.77-1.77-4.79-0.52-4.79 1.98v155.29zm-10.88-72.02c0-2.51 3.03-3.76 4.8-1.99l1.76 1.76 11.91 11.91c1.05 1.05 1.09 2.74 0.12 3.84q-0.06 0.07-0.12 0.13l-13.67 13.67c-1.77 1.77-4.8 0.52-4.8-1.99z"></path>
				<path id="&lt;Compound Path&gt;" class="s3" d="m1031.12 334.05q0.13-0.09 0.26-0.2-0.13 0.11-0.26 0.2zm-1.63 0.51c-0.71 0-1.43-0.27-1.97-0.82 0.54 0.55 1.26 0.82 1.97 0.82zm0.01 0q0.01 0 0.02 0-0.01 0-0.02 0zm-25.77 24.47q-0.2-0.5-0.6-0.9l-11.91-11.91 11.91 11.91q0.4 0.4 0.6 0.9z"></path>
				<path id="&lt;Path&gt;" class="s1" d="m1003.25 361.97c0.73-0.82 0.89-1.97 0.48-2.94q-0.2-0.5-0.6-0.9l-11.91-11.91 24.39-24.39 11.91 11.91c0.54 0.55 1.26 0.82 1.97 0.82q0.01 0 0.01 0 0.01 0 0.02 0c0.56 0 1.12-0.17 1.6-0.51q0.13-0.09 0.26-0.2z"></path>
			</g>
		</g>
	</g></svg></g></g></svg></g><g id="dark-icon"><svg xmlns="http://www.w3.org/2000/svg" version="1.1" xmlns:xlink="http://www.w3.org/1999/xlink" width="1000" height="1000"><g><g transform="matrix(2,0,0,2,0,0)"><svg xmlns="http://www.w3.org/2000/svg" version="1.2" viewBox="343 47 500 500" width="500" height="500"><defs>
		<clipPath clipPathUnits="userSpaceOnUse" id="cp1">
			<path d="m593.08 208.52h146.32v124.11h-146.32z"></path>
		</clipPath>
		<clipPath clipPathUnits="userSpaceOnUse" id="cp2">
			<path d="m461.01 174.16h158.58v158.58h-158.58z"></path>
		</clipPath>
	</defs><style>
		.s0 { fill: #adadad } 
		.s1 { fill: #187cb1 } 
		.s2 { fill: #ffffff } 
		.s3 { fill: #bcbcbc } 
		.s4 { opacity: 0;fill: #000000 } 
	</style><g id="Layer 1">
		<g id="&lt;Group&gt;">
			<g id="&lt;Clip Group&gt;" clip-path="url(#cp1)">
				<path id="&lt;Path&gt;" fill-rule="evenodd" class="s0" d="m694.74 319.35h-34.9q-14.42-0.01-26.66-4.32-12.26-4.3-21.13-11.84-8.85-7.51-13.9-17.89-5.06-10.34-5.06-22.44 0-12.09 5.06-22.11 5.05-10.01 13.9-17.24 8.87-7.2 21.13-11.11c8.17-2.59 17.08-3.88 26.66-3.88h79.37l-22.2 28.82h-57.17q-6.94 0.01-12.93 1.99-5.96 1.99-10.36 5.64-4.4 3.64-6.88 8.54-2.49 4.9-2.5 10.87 0.01 5.96 2.4 10.86c1.58 3.28 3.88 6.04 6.78 8.37q4.4 3.49 10.36 5.4c3.98 1.28 8.34 1.89 13.1 1.89h34.86v28.45z"></path>
				<path id="&lt;Path&gt;" fill-rule="evenodd" class="s1" d="m652.85 278.18h54.54v54.57l28.52-21.94v-32.63-28.49h-28.52-32.6z"></path>
			</g>
			<g id="&lt;Clip Group&gt;" clip-path="url(#cp2)">
				<path id="&lt;Compound Path&gt;" class="s2" d="m506.27 332.74l73.79-73.8c1.76-1.76 4.78-0.51 4.78 1.99v71.81h34.39v-154.84c0-2.5-3.02-3.74-4.78-1.98l-72.34 72.34q-0.05 0.05-0.1 0.1h-0.01c-1.1 0.99-2.79 0.95-3.85-0.1l-11.87-11.88-60.46-60.46c-1.77-1.76-4.78-0.52-4.78 1.98v154.84zm-10.85-71.81c0-2.5 3.02-3.75 4.78-1.99l1.76 1.76 11.87 11.87c1.06 1.05 1.1 2.74 0.12 3.84q-0.05 0.06-0.12 0.12l-13.63 13.63c-1.76 1.77-4.78 0.52-4.78-1.98z"></path>
				<path id="&lt;Compound Path&gt;" class="s3" d="m541.75 248.56q0.13-0.09 0.25-0.2-0.12 0.11-0.25 0.2zm-1.63 0.52c-0.71-0.01-1.42-0.28-1.97-0.82 0.55 0.54 1.26 0.81 1.97 0.82zm0.01 0q0.01 0 0.02 0-0.01 0-0.02 0zm-25.69 24.39q-0.21-0.49-0.6-0.9l-11.88-11.87 11.88 11.87q0.39 0.41 0.6 0.9z"></path>
				<path id="&lt;Path&gt;" class="s1" d="m513.95 276.41c0.73-0.83 0.89-1.97 0.49-2.94q-0.21-0.49-0.6-0.9l-11.88-11.87 24.32-24.32 11.87 11.88c0.55 0.54 1.26 0.81 1.97 0.82q0.01 0 0.01 0 0.01 0 0.02 0c0.56-0.01 1.12-0.18 1.6-0.52q0.13-0.09 0.25-0.2z"></path>
			</g>
			<path id="&lt;Path&gt;" class="s4" d="m461.01 332.75h158.26v-158.59h-158.26z"></path>
			<path id="&lt;Path&gt;" class="s4" d="m593.08 332.75h146.15v-124.23h-146.15z"></path>
			<g id="&lt;Group&gt;">
				<path id="&lt;Compound Path&gt;" class="s2" d="m534.09 354.96c14.66-1.51 23.48 7.57 21.83 22.2-1.37 12.08-11.81 17.05-22.96 15.3-20.49-3.22-19.9-35.33 1.13-37.5zm0.71 6.8c-3.03 0.42-5.69 2.1-6.9 4.93-1.7 3.98-1.57 13.08 1.42 16.5 2.58 2.95 8.98 3.15 12.45 2.04 5.3-1.7 5.98-8.62 5.67-13.36-0.53-7.88-4.78-11.19-12.64-10.11z"></path>
				<path id="&lt;Compound Path&gt;" class="s2" d="m584.85 355.57c5.19 0.38 10.76 2.03 11.83 7.87 1.02 5.51-1.77 9.98-7 11.67 8.59 1.97 5.2 10.24 6.81 16.67h-8.24c-1.56-3.59 0.8-10.57-2.75-12.84-0.55-0.36-2.63-1.14-3.16-1.14h-8.06v13.98h-8.24v-36.21zm-10.56 16.5h9.49c0.12 0 2.01-0.53 2.23-0.64 3.5-1.61 2.48-9.04-0.8-9.04h-10.92z"></path>
				<path id="&lt;Path&gt;" class="s2" d="m509.1 369.91h-8.6c0.53-9.08-12.92-10.8-17.49-5.13-3.18 3.95-3.26 14.25-0.01 18.17 3.44 4.12 13.4 3.97 16.26-0.83 1.05-1.78 0.98-3.39 1.78-5.04h8.06c-0.11 8.41-4.48 13.93-12.81 15.33-11.26 1.89-21.87-1.99-23.99-14.16-2.06-11.79 3.64-22.35 16.21-23.39 10.89-0.9 19.91 3.13 20.59 15.05z"></path>
				<path id="&lt;Path&gt;" class="s2" d="m715.4 366.33h-8.24c0.33-6.5-12.8-7.13-13.88-1.89-0.3 1.44-0.11 2.82 0.99 3.86 1.9 1.81 11.19 1.85 14.6 2.95 10.4 3.35 9.04 18.15-1.99 20.79-9.89 2.36-22.17-0.09-23-12.09h8.24c0.24 6 5.89 7.11 10.89 6.43 5.28-0.72 6.21-6.97 1.55-8.66-3.51-1.27-8.71-0.9-12.63-2.06-5.54-1.63-7.54-5.67-6.97-11.3 1.37-13.45 30.48-12.81 30.44 1.97z"></path>
				<path id="&lt;Path&gt;" class="s2" d="m674.93 362.39h-20.06v7.88h18.27v6.1h-18.27v8.96h20.06v6.45h-28.3v-36.21h27.76l0.54 0.54z"></path>
				<path id="&lt;Path&gt;" class="s2" d="m637.32 355.57v6.82h-11.82v29.39h-8.24v-29.39h-11.82v-6.82z"></path>
				<path id="&lt;Compound Path&gt;" class="s2" d="m525.57 425.49h-5.19c-0.36 0-1.41-1.82-1.8-2.16-8.6 7.55-18.73-3.96-8.74-10.23-4.36-5.27 1.17-12.2 7.03-8.49 3.38 2.15 2.49 6.97-0.8 8.68l-0.16 0.52 2.68 3.07 2.2-2.12c5.27 2.86 0.54 4.14 0.56 5.53zm-12.67-17.88c-1.27 0.42-0.34 3.38 0.64 3.17 2.08-1.02 1.81-4-0.64-3.17zm-2.25 9.76c-2.83 3.32 2.06 6.33 4.73 3.11 0.53-0.77-2.21-3.91-2.71-4.15-0.5-0.25-1.65 0.61-2.02 1.04z"></path>
				<path id="&lt;Compound Path&gt;" class="s2" d="m563.1 403.72c15.27-1.48 16.15 21.85 1.31 22.14-13.85 0.26-15.18-20.81-1.31-22.14zm-1.09 2.49c-8.66 1.48-8.51 16.13 0.63 17.13 14.03 1.53 13.49-19.54-0.63-17.13z"></path>
				<path id="&lt;Compound Path&gt;" class="s2" d="m585.56 403.97c5.05 0.72 7.1 6.6 2.69 9.5 4.59 1.99 5.54 8.41 0.97 11.02-0.39 0.22-2.31 1-2.58 1h-8.42v-21.52c2.3 0.23 5.13-0.31 7.34 0zm-5.19 8.97c2.8-0.01 7.91 0.59 7.91-3.41 0-4-5.11-3.39-7.91-3.4zm0 10.39h6.27c1.57 0 3.33-2.83 3.28-4.42-0.05-1.42-2.02-3.82-3.28-3.82h-6.27z"></path>
				<path id="&lt;Compound Path&gt;" class="s2" d="m534.53 425.49v-20.98l0.53-0.54h6.81c0.3 0 3.29 1 3.78 1.24 7.34 3.56 7.65 14.48 0.67 18.63-0.57 0.34-3.34 1.65-3.74 1.65zm2.51-2.15c7.26 1.06 14.64-4.09 11.42-11.97-1.94-4.73-6.82-5.38-11.42-5.24z"></path>
				<path id="&lt;Path&gt;" class="s2" d="m642.33 419.04c-5.7 13.1-24.54 5.37-19.97-7.99 3.26-9.55 15.79-9.61 19.97-0.8-2.49 2.05-3.54-1.66-5.39-2.85-4.5-2.9-10.76-0.7-12.43 4.36-2.25 6.84 3.44 13.4 10.6 11.33 3.1-0.89 3.84-4.8 7.22-4.05z"></path>
				<path id="&lt;Path&gt;" class="s2" d="m657.38 403.97v2.16h-10.39v7.52h10.03v2.16h-10.03v7.53h10.39v2.15h-12.9v-20.98l0.54-0.54z"></path>
				<path id="&lt;Path&gt;" class="s2" d="m674.93 408.28l-2.46-0.06c-0.9-3.71-9.39-3.52-9.4 0.95 0 5.01 9.84 3.5 12.38 7.73 1.19 1.97 0.83 5.13-0.74 6.76-3.59 3.73-14.08 3.07-14.47-3.19 3.07-0.48 2.09 0.4 3.39 1.81 2.36 2.57 10.46 2.02 10.25-2.34-0.25-5.29-11.1-3.38-12.94-8.6-2.91-8.25 12.44-10.8 13.99-3.06z"></path>
				<path id="&lt;Path&gt;" class="s2" d="m618.69 403.97v2.16h-10.38v7.52h10.38v2.16h-10.38v7.53h10.38v2.15h-12.53v-21.52z"></path>
				<path id="&lt;Path&gt;" class="s2" d="m596.49 403.97v19.37h7.52v2.15h-10.03v-20.98c0.58-0.81 1.64-0.51 2.51-0.54z"></path>
			</g>
		</g>
	</g></svg></g></g></svg></g></svg>